<?xml version="1.0" encoding="utf-8"?>
<!-- Generator: Adobe Illustrator 28.2.0, SVG Export Plug-In . SVG Version: 6.00 Build 0)  -->
<svg version="1.1" id="Слой_1" xmlns="http://www.w3.org/2000/svg" xmlns:xlink="http://www.w3.org/1999/xlink" x="0px" y="0px"
     viewBox="0 0 96 96" style="enable-background:new 0 0 96 96;" xml:space="preserve">
    <!-- Circular white background -->
    <circle cx="48" cy="48" r="46" fill="white"/>
<g>
    <polygon points="34.2,37.3 27.4,52 36.2,52 34.5,37.3    "/>
    <path d="M48,0C21.5,0,0,21.5,0,48c0,26.5,21.5,48,48,48s48-21.5,48-48C96,21.5,74.5,0,48,0z M80.3,68.6H68.9l-5.1-15.9L59,58
        l-1.9,10.6h-8.2h-2.4h-8.6l-1.2-8.8H24.3L20,68.6H9.2l20.5-41.3h12.2l5.8,34.3l6-34.3h10.6l-2.9,15.8l0.2,0.2l13.5-16.1h11.7
        L72.1,44.8L80.3,68.6z"/>
</g>
</svg>
